<svg width="5" height="10" viewBox="0 0 5 10" fill="none" xmlns="http://www.w3.org/2000/svg">
<path d="M0.765312 0.984681L4.51531 4.73468C4.55018 4.76951 4.57784 4.81087 4.59671 4.85639C4.61558 4.90192 4.62529 4.95071 4.62529 4.99999C4.62529 5.04927 4.61558 5.09807 4.59671 5.1436C4.57784 5.18912 4.55018 5.23048 4.51531 5.26531L0.765313 9.01531C0.712867 9.06781 0.646022 9.10357 0.57324 9.11807C0.500458 9.13256 0.425012 9.12514 0.356454 9.09673C0.287895 9.06832 0.229307 9.02021 0.188105 8.95849C0.146903 8.89677 0.124942 8.82421 0.125 8.74999L0.125 1.24999C0.124941 1.17578 0.146903 1.10322 0.188105 1.0415C0.229306 0.979777 0.287895 0.931668 0.356453 0.903261C0.425012 0.874853 0.500458 0.867427 0.57324 0.881921C0.646022 0.896415 0.712867 0.932177 0.765312 0.984681Z" fill="#696868"/>
</svg>
