<svg width="14" height="14" viewBox="0 0 14 14" fill="none" xmlns="http://www.w3.org/2000/svg">
<path d="M0.546859 6.22122C0.694509 4.98313 1.20091 3.81523 2.00373 2.86122C2.09256 2.7541 2.20277 2.6667 2.32731 2.60462C2.45185 2.54253 2.58798 2.50711 2.72699 2.50064C2.86599 2.49417 3.00482 2.51679 3.13459 2.56704C3.26436 2.61729 3.38221 2.69407 3.48061 2.79247L5.20998 4.55872C5.37653 4.72489 5.4786 4.94485 5.49794 5.17932C5.51729 5.41379 5.45267 5.6475 5.31561 5.83872C5.21179 5.986 5.13361 6.14976 5.08436 6.32309C5.06872 6.37424 5.03708 6.41901 4.99411 6.45085C4.95114 6.48269 4.89909 6.4999 4.84561 6.49997H0.795609C0.760318 6.50003 0.725414 6.49261 0.693194 6.47821C0.660975 6.46381 0.632169 6.44276 0.608671 6.41642C0.585174 6.39009 0.567517 6.35909 0.556864 6.32544C0.54621 6.2918 0.5428 6.25628 0.546859 6.22122ZM7.58686 0.50372C7.44874 0.491675 7.30962 0.508484 7.17834 0.553079C7.04706 0.597675 6.92649 0.669082 6.82428 0.762767C6.72207 0.856452 6.64046 0.970367 6.58463 1.09728C6.52881 1.22419 6.49998 1.36132 6.49998 1.49997V4.04184C6.49826 4.27771 6.58069 4.50646 6.73248 4.687C6.88426 4.86754 7.09545 4.98804 7.32811 5.02684C7.7662 5.09912 8.16778 5.31512 8.46957 5.6408C8.77135 5.96648 8.95618 6.38333 8.99493 6.82565C9.03368 7.26796 8.92413 7.7106 8.68356 8.08379C8.443 8.45698 8.08508 8.73951 7.66623 8.88684C7.61748 8.90475 7.5754 8.93719 7.54567 8.97977C7.51594 9.02236 7.5 9.07304 7.49998 9.12497V13.2018C7.49975 13.2372 7.50703 13.2723 7.52135 13.3047C7.53568 13.337 7.55671 13.366 7.58306 13.3896C7.60941 13.4133 7.64048 13.431 7.67421 13.4417C7.70795 13.4525 7.74357 13.4559 7.77873 13.4518C9.33864 13.2593 10.7765 12.5098 11.8277 11.3413C12.879 10.1728 13.4728 8.66399 13.5 7.09247C13.5469 3.69934 10.9494 0.80497 7.58686 0.50372ZM6.32811 8.88497C6.04862 8.78528 5.79482 8.62464 5.5851 8.41471C5.37539 8.20478 5.21501 7.95081 5.11561 7.67122C5.09856 7.62164 5.06658 7.57855 5.02405 7.54788C4.98152 7.51722 4.93054 7.50048 4.87811 7.49997H0.794984C0.759646 7.49975 0.724663 7.50702 0.692341 7.5213C0.660019 7.53558 0.631092 7.55656 0.607469 7.58284C0.583845 7.60912 0.566062 7.64011 0.555291 7.67377C0.54452 7.70742 0.541007 7.74298 0.544984 7.77809C0.720055 9.22273 1.37438 10.567 2.40336 11.596C3.43235 12.625 4.7766 13.2793 6.22123 13.4543C6.25635 13.4583 6.2919 13.4548 6.32556 13.444C6.35922 13.4333 6.39021 13.4155 6.41649 13.3919C6.44277 13.3682 6.46374 13.3393 6.47803 13.307C6.49231 13.2747 6.49958 13.2397 6.49936 13.2043V9.12497C6.49946 9.07209 6.483 9.02051 6.45228 8.97746C6.42157 8.93442 6.37814 8.90207 6.32811 8.88497Z" fill="#201F24"/>
</svg>
