<svg width="13" height="14" viewBox="0 0 13 14" fill="none" xmlns="http://www.w3.org/2000/svg">
<path d="M9 4.00003V10C9 10.1326 8.94732 10.2598 8.85355 10.3536C8.75978 10.4474 8.6326 10.5 8.5 10.5H7V13C7.00007 13.099 6.97079 13.1957 6.91586 13.278C6.86092 13.3603 6.7828 13.4245 6.69139 13.4623C6.59998 13.5002 6.49939 13.5101 6.40234 13.4908C6.3053 13.4715 6.21617 13.4238 6.14625 13.3538L0.146247 7.35378C0.0997584 7.30734 0.0628788 7.2522 0.0377167 7.1915C0.0125545 7.1308 -0.000396729 7.06574 -0.000396729 7.00003C-0.000396729 6.93432 0.0125545 6.86926 0.0377167 6.80856C0.0628788 6.74786 0.0997584 6.69271 0.146247 6.64628L6.14625 0.646278C6.21617 0.576272 6.3053 0.528588 6.40234 0.509263C6.49939 0.489938 6.59998 0.49984 6.69139 0.537716C6.7828 0.575593 6.86092 0.63974 6.91586 0.722037C6.97079 0.804333 7.00007 0.90108 7 1.00003V3.50003H8.5C8.6326 3.50003 8.75978 3.55271 8.85355 3.64647C8.94732 3.74024 9 3.86742 9 4.00003ZM10.5 3.50003C10.3674 3.50003 10.2402 3.55271 10.1464 3.64647C10.0527 3.74024 10 3.86742 10 4.00003V10C10 10.1326 10.0527 10.2598 10.1464 10.3536C10.2402 10.4474 10.3674 10.5 10.5 10.5C10.6326 10.5 10.7598 10.4474 10.8535 10.3536C10.9473 10.2598 11 10.1326 11 10V4.00003C11 3.86742 10.9473 3.74024 10.8535 3.64647C10.7598 3.55271 10.6326 3.50003 10.5 3.50003ZM12.5 3.50003C12.3674 3.50003 12.2402 3.55271 12.1464 3.64647C12.0527 3.74024 12 3.86742 12 4.00003V10C12 10.1326 12.0527 10.2598 12.1464 10.3536C12.2402 10.4474 12.3674 10.5 12.5 10.5C12.6326 10.5 12.7598 10.4474 12.8535 10.3536C12.9473 10.2598 13 10.1326 13 10V4.00003C13 3.86742 12.9473 3.74024 12.8535 3.64647C12.7598 3.55271 12.6326 3.50003 12.5 3.50003Z" fill="#201F24"/>
</svg>
