<svg width="12" height="13" viewBox="0 0 12 13" fill="none" xmlns="http://www.w3.org/2000/svg">
<path d="M12 6.22185V12C12 12.2652 11.8946 12.5195 11.7071 12.7071C11.5196 12.8946 11.2652 13 11 13H8.5C8.23478 13 7.98043 12.8946 7.79289 12.7071C7.60536 12.5195 7.5 12.2652 7.5 12V9.49997C7.5 9.36737 7.44732 9.24019 7.35355 9.14642C7.25979 9.05265 7.13261 8.99997 7 8.99997H5C4.86739 8.99997 4.74021 9.05265 4.64645 9.14642C4.55268 9.24019 4.5 9.36737 4.5 9.49997V12C4.5 12.2652 4.39464 12.5195 4.20711 12.7071C4.01957 12.8946 3.76522 13 3.5 13H1C0.734784 13 0.48043 12.8946 0.292893 12.7071C0.105357 12.5195 1.15549e-08 12.2652 1.15549e-08 12V6.22185C-2.10268e-05 6.08345 0.028687 5.94655 0.0843072 5.81982C0.139927 5.69309 0.221249 5.57928 0.323125 5.4856L5.32312 0.7681L5.33 0.761225C5.51409 0.593808 5.75398 0.501038 6.00281 0.501038C6.25164 0.501038 6.49154 0.593808 6.67562 0.761225C6.67776 0.76367 6.68005 0.765967 6.6825 0.7681L11.6825 5.4856C11.7834 5.57977 11.8636 5.6938 11.9183 5.82051C11.9729 5.94722 12.0007 6.08386 12 6.22185Z" fill="#201F24"/>
</svg>
