<svg width="12" height="14" viewBox="0 0 12 14" fill="none" xmlns="http://www.w3.org/2000/svg">
<path d="M9.5 2.05063V1C9.5 0.734784 9.39464 0.48043 9.20711 0.292893C9.01957 0.105357 8.76522 0 8.5 0H3.5C3.23478 0 2.98043 0.105357 2.79289 0.292893C2.60536 0.48043 2.5 0.734784 2.5 1V2.05063C1.93569 2.16641 1.42859 2.4733 1.06425 2.91951C0.699903 3.36571 0.500613 3.92394 0.5 4.5V11.5C0.5 12.163 0.763392 12.7989 1.23223 13.2678C1.70107 13.7366 2.33696 14 3 14H9C9.66304 14 10.2989 13.7366 10.7678 13.2678C11.2366 12.7989 11.5 12.163 11.5 11.5V4.5C11.4994 3.92394 11.3001 3.36571 10.9358 2.91951C10.5714 2.4733 10.0643 2.16641 9.5 2.05063ZM5.5 1H6.5V2H5.5V1ZM3.5 1H4.5V2H3.5V1ZM6.5 10.5V11C6.5 11.1326 6.44732 11.2598 6.35355 11.3536C6.25979 11.4473 6.13261 11.5 6 11.5C5.86739 11.5 5.74021 11.4473 5.64645 11.3536C5.55268 11.2598 5.5 11.1326 5.5 11V10.5H5C4.86739 10.5 4.74021 10.4473 4.64645 10.3536C4.55268 10.2598 4.5 10.1326 4.5 10C4.5 9.86739 4.55268 9.74021 4.64645 9.64645C4.74021 9.55268 4.86739 9.5 5 9.5H6.5C6.63261 9.5 6.75979 9.44732 6.85355 9.35355C6.94732 9.25979 7 9.13261 7 9C7 8.86739 6.94732 8.74021 6.85355 8.64645C6.75979 8.55268 6.63261 8.5 6.5 8.5H5.5C5.10218 8.5 4.72064 8.34196 4.43934 8.06066C4.15804 7.77936 4 7.39782 4 7C4 6.60218 4.15804 6.22064 4.43934 5.93934C4.72064 5.65804 5.10218 5.5 5.5 5.5V5C5.5 4.86739 5.55268 4.74021 5.64645 4.64645C5.74021 4.55268 5.86739 4.5 6 4.5C6.13261 4.5 6.25979 4.55268 6.35355 4.64645C6.44732 4.74021 6.5 4.86739 6.5 5V5.5H7C7.13261 5.5 7.25979 5.55268 7.35355 5.64645C7.44732 5.74021 7.5 5.86739 7.5 6C7.5 6.13261 7.44732 6.25979 7.35355 6.35355C7.25979 6.44732 7.13261 6.5 7 6.5H5.5C5.36739 6.5 5.24021 6.55268 5.14645 6.64645C5.05268 6.74021 5 6.86739 5 7C5 7.13261 5.05268 7.25979 5.14645 7.35355C5.24021 7.44732 5.36739 7.5 5.5 7.5H6.5C6.89782 7.5 7.27936 7.65804 7.56066 7.93934C7.84196 8.22064 8 8.60218 8 9C8 9.39782 7.84196 9.77936 7.56066 10.0607C7.27936 10.342 6.89782 10.5 6.5 10.5ZM8.5 2H7.5V1H8.5V2Z" fill="#201F24"/>
</svg>
