<svg width="16" height="17" viewBox="0 0 16 17" fill="none" xmlns="http://www.w3.org/2000/svg">
<path d="M14.3538 14.1462L11.2244 11.0175C12.1314 9.92856 12.5837 8.53186 12.4872 7.11795C12.3906 5.70404 11.7527 4.38177 10.7061 3.42622C9.65951 2.47067 8.2848 1.9554 6.86796 1.9876C5.45113 2.0198 4.10125 2.59699 3.09913 3.5991C2.09702 4.60122 1.51983 5.9511 1.48763 7.36793C1.45543 8.78477 1.9707 10.1595 2.92625 11.2061C3.88181 12.2527 5.20407 12.8906 6.61798 12.9871C8.03189 13.0837 9.42859 12.6314 10.5175 11.7244L13.6463 14.8537C13.6927 14.9002 13.7479 14.937 13.8086 14.9622C13.8693 14.9873 13.9343 15.0003 14 15.0003C14.0657 15.0003 14.1308 14.9873 14.1915 14.9622C14.2522 14.937 14.3073 14.9002 14.3538 14.8537C14.4002 14.8073 14.4371 14.7521 14.4622 14.6914C14.4874 14.6307 14.5003 14.5657 14.5003 14.5C14.5003 14.4343 14.4874 14.3692 14.4622 14.3085C14.4371 14.2478 14.4002 14.1927 14.3538 14.1462ZM2.50002 7.49999C2.50002 6.60997 2.76394 5.73994 3.25841 4.99992C3.75287 4.2599 4.45568 3.68313 5.27795 3.34253C6.10021 3.00194 7.00501 2.91282 7.87793 3.08646C8.75084 3.26009 9.55266 3.68867 10.182 4.31801C10.8113 4.94735 11.2399 5.74917 11.4136 6.62208C11.5872 7.495 11.4981 8.3998 11.1575 9.22207C10.8169 10.0443 10.2401 10.7471 9.50009 11.2416C8.76007 11.7361 7.89004 12 7.00002 12C5.80695 11.9987 4.66313 11.5241 3.8195 10.6805C2.97587 9.83688 2.50134 8.69306 2.50002 7.49999Z" fill="#201F24"/>
</svg>
