<svg width="12" height="12" viewBox="0 0 12 12" fill="none" xmlns="http://www.w3.org/2000/svg">
<path d="M5.4619 8.80878C5.4998 8.90013 5.50976 9.00067 5.49051 9.09768C5.47127 9.19469 5.42368 9.28381 5.35378 9.35378L3.35378 11.3538C3.30734 11.4003 3.2522 11.4371 3.1915 11.4623C3.1308 11.4875 3.06574 11.5004 3.00003 11.5004C2.93432 11.5004 2.86926 11.4875 2.80856 11.4623C2.74786 11.4371 2.69271 11.4003 2.64628 11.3538L0.646278 9.35378C0.576272 9.28385 0.528588 9.19472 0.509263 9.09768C0.489938 9.00064 0.49984 8.90004 0.537716 8.80863C0.575593 8.71722 0.63974 8.6391 0.722037 8.58417C0.804333 8.52923 0.90108 8.49995 1.00003 8.50003H2.50003V1.00003C2.50003 0.867419 2.55271 0.740242 2.64647 0.646474C2.74024 0.552706 2.86742 0.500027 3.00003 0.500027C3.13264 0.500027 3.25981 0.552706 3.35358 0.646474C3.44735 0.740242 3.50003 0.867419 3.50003 1.00003V8.50003H5.00003C5.09892 8.50005 5.19558 8.52939 5.27779 8.58435C5.36001 8.63931 5.42408 8.71741 5.4619 8.80878ZM11.3538 2.64628L9.35378 0.646277C9.30734 0.599789 9.2522 0.56291 9.1915 0.537747C9.1308 0.512585 9.06574 0.499634 9.00003 0.499634C8.93432 0.499634 8.86926 0.512585 8.80856 0.537747C8.74786 0.56291 8.69271 0.599789 8.64628 0.646277L6.64628 2.64628C6.57627 2.7162 6.52859 2.80533 6.50926 2.90237C6.48994 2.99942 6.49984 3.10001 6.53772 3.19142C6.57559 3.28283 6.63974 3.36095 6.72204 3.41589C6.80433 3.47082 6.90108 3.50011 7.00003 3.50003H8.50003V11C8.50003 11.1326 8.55271 11.2598 8.64647 11.3536C8.74024 11.4473 8.86742 11.5 9.00003 11.5C9.13264 11.5 9.25981 11.4473 9.35358 11.3536C9.44735 11.2598 9.50003 11.1326 9.50003 11V3.50003H11C11.099 3.50011 11.1957 3.47082 11.278 3.41589C11.3603 3.36095 11.4245 3.28283 11.4623 3.19142C11.5002 3.10001 11.5101 2.99942 11.4908 2.90237C11.4715 2.80533 11.4238 2.7162 11.3538 2.64628Z" fill="#201F24"/>
</svg>
